<?xml version="1.0" encoding="UTF-8" standalone="no"?>
<!DOCTYPE svg PUBLIC "-//W3C//DTD SVG 1.1//EN" "http://www.w3.org/Graphics/SVG/1.1/DTD/svg11.dtd">
<svg width="100%" height="100%" viewBox="0 0 407 402" version="1.1" xmlns="http://www.w3.org/2000/svg" xmlns:xlink="http://www.w3.org/1999/xlink" xml:space="preserve" xmlns:serif="http://www.serif.com/" style="fill-rule:evenodd;clip-rule:evenodd;stroke-linejoin:round;stroke-miterlimit:2;"><style>path{fill:#000}@media (prefers-color-scheme:dark){path{fill:#fff}}</style>
    <g transform="matrix(1,0,0,1,-1645.81,-695.442)">
        <g transform="matrix(1,0,0,1,1611.68,666.908)">
            <path d="M307.719,28.534L376.536,67.698L267.995,213.165L440.877,190.226L440.877,267.995L267.995,247.294L267.995,249.532L377.655,388.285L305.481,428.569L236.664,267.995L234.426,267.995L160.014,429.688L95.113,388.285L203.654,246.175L34.129,267.995L34.129,190.226L202.535,212.046L202.535,209.808L95.113,68.817L164.49,29.653L235.545,189.107L238.342,189.107L307.719,28.534Z"/>
        </g>
    </g>
</svg>
